HIERARCHY
ROOT Hips
{
	OFFSET 0.000000 0.000000 0.000000
	CHANNELS 6 Xposition Yposition Zposition Zrotation Yrotation Xrotation 
	JOINT LowerBack
	{
		OFFSET 0.000000 0.000000 0.000000
		CHANNELS 3 Zrotation Yrotation Xrotation
		JOINT Spine
		{
			OFFSET 0.028270 2.035590 -0.193380
			CHANNELS 3 Zrotation Yrotation Xrotation
			JOINT Spine1
			{
				OFFSET 0.056720 2.048850 -0.042750
				CHANNELS 3 Zrotation Yrotation Xrotation
				JOINT Neck
				{
					OFFSET 0.000000 0.000000 0.000000
					CHANNELS 3 Zrotation Yrotation Xrotation
					JOINT Neck1
					{
						OFFSET -0.054170 1.746240 0.172020
						CHANNELS 3 Zrotation Yrotation Xrotation
						JOINT Head
						{
							OFFSET 0.104070 1.761360 -0.123970
							CHANNELS 3 Zrotation Yrotation Xrotation
							End Site
							{
								OFFSET 0.000000 0.000000 0.000000
							}
						}
					}
				}
				JOINT LeftShoulder
				{
					OFFSET 0.000000 0.000000 0.000000
					CHANNELS 3 Zrotation Yrotation Xrotation
					JOINT LeftArm
					{
						OFFSET 3.362410 1.200890 -0.311210
						CHANNELS 3 Zrotation Yrotation Xrotation
						JOINT LeftForeArm
						{
							OFFSET 4.983000 -0.000000 -0.000000
							CHANNELS 3 Zrotation Yrotation Xrotation
							JOINT LeftHand
							{
								OFFSET 3.483560 -0.000000 -0.000000
								CHANNELS 3 Zrotation Yrotation Xrotation
								JOINT LeftFingerBase
								{
									OFFSET 0.000000 0.000000 0.000000
									CHANNELS 3 Zrotation Yrotation Xrotation
									JOINT LeftHandIndex1
									{
										OFFSET 0.715260 -0.000000 -0.000000
										CHANNELS 3 Zrotation Yrotation Xrotation
										End Site
										{
											OFFSET 0.000000 0.000000 0.000000
										}
									}
								}
								JOINT LThumb
								{
									OFFSET 0.000000 0.000000 0.000000
									CHANNELS 3 Zrotation Yrotation Xrotation
									End Site
									{
										OFFSET 0.000000 0.000000 0.000000
									}
								}
							}
						}
					}
				}
				JOINT RightShoulder
				{
					OFFSET 0.000000 0.000000 0.000000
					CHANNELS 3 Zrotation Yrotation Xrotation
					JOINT RightArm
					{
						OFFSET -3.136600 1.374050 -0.404650
						CHANNELS 3 Zrotation Yrotation Xrotation
						JOINT RightForeArm
						{
							OFFSET -5.241900 -0.000000 -0.000000
							CHANNELS 3 Zrotation Yrotation Xrotation
							JOINT RightHand
							{
								OFFSET -3.444170 -0.000000 -0.000000
								CHANNELS 3 Zrotation Yrotation Xrotation
								JOINT RightFingerBase
								{
									OFFSET 0.000000 0.000000 0.000000
									CHANNELS 3 Zrotation Yrotation Xrotation
									JOINT RightHandIndex1
									{
										OFFSET -0.622530 -0.000000 -0.000000
										CHANNELS 3 Zrotation Yrotation Xrotation
										End Site
										{
											OFFSET 0.000000 0.000000 0.000000
										}
									}
								}
								JOINT RThumb
								{
									OFFSET 0.000000 0.000000 0.000000
									CHANNELS 3 Zrotation Yrotation Xrotation
									End Site
									{
										OFFSET 0.000000 0.000000 0.000000
									}
								}
							}
						}
					}
				}
			}
		}
	}
}
}
MOTION
Frames: 11
Frame Time: 0.008333
-1.873534 16.886951 -1.046385 -152.015344 81.368489 -144.876368 0.224238 2.476346 -5.812537 -1.340214 2.131155 -3.846072 -8.044728 2.115389 1.755881 12.502561 -6.537876 -8.294392 -3.760955 -0.295691 -0.167445 0.000000 0.000000 0.000000 -0.231575 23.703490 1.029959 -61.266310 19.329213 -15.414443 -4.060686 -22.560778 0.005410 5.469354 1.121852 0.059456 -0.156085 -0.081409 -0.000000 0.000000 0.000000 0.000000 0.000000 0.000000 0.000000 19.619186 1.410342 -0.630748 64.105264 20.642020 5.053216 2.115914 47.861963 0.008173 0.123178 7.243258 0.006995 0.038550 -0.256142 -0.000000 0.000000 0.000000 0.000000 0.000000 0.000000 0.000000 
-1.723648 16.894218 -1.072504 -155.252923 81.023517 -148.137688 -0.141546 2.380233 -5.868421 -1.416851 2.064902 -3.859608 -8.075566 2.046267 1.754719 12.611117 -6.636650 -8.287527 -3.785298 -0.297828 -0.166392 0.000000 0.000000 0.000000 -0.227619 23.556464 1.003726 -61.285636 18.970351 -15.491938 -4.072969 -22.312688 0.005493 5.506802 1.074226 0.057454 -0.155138 -0.080228 -0.000000 0.000000 0.000000 0.000000 0.000000 0.000000 0.000000 19.858577 1.248155 -0.649498 64.666279 20.015486 4.584977 2.158930 47.318535 0.008435 0.148082 7.240032 0.008495 0.039870 -0.251966 -0.000000 0.000000 0.000000 0.000000 0.000000 0.000000 0.000000 
-1.578057 16.901718 -1.101002 -158.186047 80.629288 -151.080636 -0.458411 2.282650 -5.904726 -1.478838 1.994381 -3.868003 -8.089818 1.973109 1.754155 12.665712 -6.731225 -8.282165 -3.802222 -0.299295 -0.165517 0.000000 0.000000 0.000000 -0.278747 23.400061 0.979298 -61.347620 18.530702 -15.558516 -4.081548 -22.043311 0.005563 5.562606 1.029716 0.055650 -0.153838 -0.078732 -0.000000 0.000000 0.000000 0.000000 0.000000 0.000000 0.000000 20.003811 1.080663 -0.672054 65.266086 19.377197 4.063218 2.201616 46.725690 0.008657 0.168444 7.219524 0.009688 0.041244 -0.247474 -0.000000 0.000000 0.000000 0.000000 0.000000 0.000000 0.000000 
-1.437095 16.909002 -1.131774 -160.805470 80.198768 -153.701289 -0.726711 2.185277 -5.914254 -1.526705 1.921579 -3.869781 -8.087835 1.898124 1.754805 12.668580 -6.824710 -8.282259 -3.811870 -0.300050 -0.165954 0.000000 0.000000 0.000000 -0.384442 23.239125 0.957204 -61.452043 18.007238 -15.606046 -4.085529 -21.761529 0.005620 5.638586 0.989408 0.054247 -0.152157 -0.076935 -0.000000 0.000000 0.000000 0.000000 0.000000 0.000000 0.000000 20.060072 0.907187 -0.695520 65.890749 18.741955 3.502679 2.243977 46.085349 0.008823 0.177148 7.185624 0.010177 0.042756 -0.242773 -0.000000 0.000000 0.000000 0.000000 0.000000 0.000000 0.000000 
-1.300967 16.915779 -1.165288 -163.004126 79.742658 -155.892410 -0.923156 2.092628 -5.899792 -1.556510 1.848835 -3.865597 -8.071113 1.823865 1.756048 12.619127 -6.910032 -8.289237 -3.815108 -0.300160 -0.168006 0.000000 0.000000 0.000000 -0.553323 23.082522 0.937470 -61.595572 17.401656 -15.621691 -4.083585 -21.478583 0.005667 5.735709 0.954332 0.053243 -0.150036 -0.074906 -0.000000 0.000000 0.000000 0.000000 0.000000 0.000000 0.000000 20.028502 0.739140 -0.717946 66.523590 18.107607 2.909926 2.285848 45.407922 0.008937 0.173196 7.142465 0.009662 0.044408 -0.237933 -0.000000 0.000000 0.000000 0.000000 0.000000 0.000000 0.000000 
-1.169620 16.921950 -1.201573 -164.789216 79.278486 -157.663557 -1.044754 2.007148 -5.861892 -1.568412 1.778207 -3.855649 -8.041865 1.752479 1.758354 12.523229 -6.987363 -8.305322 -3.813236 -0.299710 -0.172328 0.000000 0.000000 0.000000 -0.786984 22.937901 0.919498 -61.772495 16.716819 -15.593130 -4.075030 -21.204416 0.005707 5.853702 0.925113 0.052638 -0.147445 -0.072721 -0.000000 0.000000 0.000000 0.000000 0.000000 0.000000 0.000000 19.922474 0.579291 -0.736893 67.146684 17.482684 2.302901 2.327706 44.695804 0.008998 0.152754 7.095783 0.008244 0.046264 -0.233015 0.000000 0.000000 0.000000 0.000000 0.000000 0.000000 0.000000 
-1.042826 16.927588 -1.241019 -166.117735 78.820816 -158.968570 -1.074265 1.932506 -5.809855 -1.559747 1.711406 -3.842002 -8.002677 1.685675 1.761289 12.384078 -7.048181 -8.329802 -3.807883 -0.298858 -0.178672 0.000000 0.000000 0.000000 -1.091016 22.814517 0.902505 -61.976431 15.958840 -15.506405 -4.059135 -20.948511 0.005745 5.991109 0.901556 0.052433 -0.144340 -0.070475 -0.000000 0.000000 0.000000 0.000000 0.000000 0.000000 0.000000 19.750486 0.439647 -0.751348 67.743552 16.860967 1.690136 2.369812 43.957500 0.009019 0.117600 7.049957 0.005723 0.048307 -0.228043 0.000000 0.000000 0.000000 0.000000 0.000000 0.000000 0.000000 
-0.920268 16.932851 -1.283322 -167.075171 78.384944 -159.894174 -1.023146 1.868698 -5.747240 -1.533520 1.649128 -3.825603 -7.956378 1.624021 1.765155 12.211514 -7.092291 -8.362555 -3.800837 -0.297755 -0.187135 0.000000 0.000000 0.000000 -1.460457 22.716485 0.885526 -62.201289 15.135109 -15.351229 -4.036001 -20.718904 0.005786 6.145029 0.883288 0.052528 -0.140720 -0.068240 -0.000000 0.000000 0.000000 0.000000 0.000000 0.000000 0.000000 19.532505 0.321612 -0.760008 68.300456 16.247013 1.086735 2.412803 43.193845 0.009014 0.068242 7.009664 0.002501 0.050545 -0.223038 0.000000 0.000000 0.000000 0.000000 0.000000 0.000000 0.000000 
-0.801472 16.938031 -1.328398 -167.712679 77.980252 -160.489077 -0.896671 1.815615 -5.682268 -1.491435 1.591282 -3.808096 -7.905536 1.567296 1.770641 12.013473 -7.119327 -8.402307 -3.793658 -0.296554 -0.197429 0.000000 0.000000 0.000000 -1.891578 22.647378 0.867145 -62.441345 14.254054 -15.118658 -4.005927 -20.522267 0.005830 6.311148 0.870343 0.053023 -0.136601 -0.066082 -0.000000 0.000000 0.000000 0.000000 0.000000 0.000000 0.000000 19.284883 0.225825 -0.762628 68.806293 15.642845 0.505597 2.457378 42.404493 0.008997 0.006477 6.977824 -0.001622 0.052976 -0.217981 0.000000 0.000000 0.000000 0.000000 0.000000 0.000000 0.000000 
-0.685942 16.943398 -1.376132 -168.078750 77.611024 -160.797993 -0.701459 1.772251 -5.624319 -1.435368 1.536966 -3.791326 -7.852398 1.514441 1.778262 11.797043 -7.128380 -8.446733 -3.787642 -0.295400 -0.208957 0.000000 0.000000 0.000000 -2.378848 22.608363 0.846115 -62.692013 13.324919 -14.802820 -3.969516 -20.362967 0.005876 6.484328 0.862184 0.053817 -0.132022 -0.064039 -0.000000 0.000000 0.000000 0.000000 0.000000 0.000000 0.000000 19.021398 0.152530 -0.759737 69.254418 15.046730 -0.046047 2.504070 41.590328 0.008983 -0.063823 6.954782 -0.006146 0.055573 -0.212828 0.000000 0.000000 0.000000 0.000000 0.000000 0.000000 0.000000 
-0.573174 16.949236 -1.426282 -168.228561 77.276865 -160.872010 -0.447463 1.736526 -5.581369 -1.367669 1.484549 -3.775882 -7.798452 1.463824 1.792011 11.571023 -7.144936 -8.498650 -3.782977 -0.294305 -0.222442 0.000000 0.000000 0.000000 -2.919534 22.594444 0.819063 -62.949243 12.361056 -14.403673 -3.927682 -20.252653 0.005908 6.654686 0.863860 0.055213 -0.127064 -0.062162 -0.000000 0.000000 0.000000 0.000000 0.000000 0.000000 0.000000 18.760156 0.072824 -0.750755 69.639476 14.489680 -0.538730 2.555374 40.732291 0.008996 -0.141637 6.939327 -0.011270 0.058457 -0.207489 0.000000 0.000000 0.000000 0.000000 0.000000 0.000000 0.000000 
